<svg id="Capa_1" enable-background="new 0 0 512 512" height="512" viewBox="0 0 512 512" width="512" xmlns="http://www.w3.org/2000/svg"><g><g><circle cx="393.455" cy="406.146" r="7.483"/></g><g><path d="m409.071 124.873h-340.369c-4.142 0-7.5 3.358-7.5 7.5s3.358 7.5 7.5 7.5h340.37c4.142 0 7.5-3.358 7.5-7.5s-3.359-7.5-7.501-7.5z"/><path d="m416.571 199.45c0-4.142-3.358-7.5-7.5-7.5h-340.369c-4.142 0-7.5 3.358-7.5 7.5s3.358 7.5 7.5 7.5h340.37c4.141 0 7.499-3.358 7.499-7.5z"/><path d="m68.702 259.027c-4.142 0-7.5 3.358-7.5 7.5s3.358 7.5 7.5 7.5h167.231c4.142 0 7.5-3.358 7.5-7.5s-3.358-7.5-7.5-7.5z"/><path d="m394.166 290.181c-17.564-.373-32.621 12.473-35.045 29.837-.221 1.589-.333 3.212-.333 4.824 0 4.142 3.358 7.5 7.5 7.5s7.5-3.358 7.5-7.5c0-.922.064-1.849.19-2.752 1.374-9.842 9.93-17.121 19.887-16.911 10.252.207 18.699 8.38 19.231 18.607.59 11.374-8.45 20.724-19.64 20.724-4.142 0-7.5 3.358-7.5 7.5v28.408c0 4.142 3.358 7.5 7.5 7.5s7.5-3.358 7.5-7.5v-21.738c16.108-3.597 28.026-18.224 27.12-35.672-.938-18.044-15.832-32.463-33.91-32.827z"/><path d="m510.864 446.488-23.894-54.123c-.643-1.456-.685-3.098-.116-4.621 4.375-11.738 6.48-24.095 6.256-36.728-.961-54.01-45.154-97.771-99.188-98.204-55.931-.415-101.29 44.878-100.833 100.849.447 54.893 45.385 99.524 100.739 99.185 13.315-.095 26.237-2.769 38.407-7.949 1.337-.569 2.848-.624 4.251-.159l58.343 19.383c4.941 1.643 10.219.287 13.754-3.6 3.519-3.87 4.393-9.247 2.281-14.033zm-69.649-15.985c-2.168-.72-4.415-1.079-6.656-1.079-2.799 0-5.587.559-8.199 1.671-10.337 4.399-21.318 6.671-32.639 6.751-46.802.333-85.252-37.456-85.633-84.307-.387-47.48 37.957-85.73 85.012-85.73.232 0 .468.001.701.002 45.677.365 83.499 37.81 84.31 83.471.191 10.747-1.597 21.252-5.313 31.222-1.942 5.21-1.783 10.864.449 15.918l22.103 50.066z"/><path d="m265.502 353.866h-105.987c-6.141 0-11.975 2.328-16.429 6.556l-77.387 73.461 11.335-62.937c1.604-8.903-5.243-17.079-14.278-17.079h-4.776c-23.7 0-42.981-19.281-42.981-42.981v-205.71c0-23.7 19.281-42.981 42.981-42.981h361.811c23.7 0 42.981 19.281 42.981 42.981v156.852c0 4.142 3.358 7.5 7.5 7.5s7.5-3.358 7.5-7.5v-156.853c0-31.971-26.01-57.981-57.981-57.981h-361.81c-31.971 0-57.981 26.01-57.981 57.981v205.71c0 31.97 26.01 57.981 57.981 57.981h4.187l-12.333 68.482c-.996 5.529 1.658 11.036 6.601 13.704 4.921 2.655 10.983 1.88 15.078-2.007l81.899-77.744c1.654-1.57 3.821-2.435 6.102-2.435h105.987c4.142 0 7.5-3.358 7.5-7.5s-3.358-7.5-7.5-7.5z"/></g></g></svg>