<svg id="Capa_1" enable-background="new 0 0 512 512" height="512" viewBox="0 0 512 512" width="512" xmlns="http://www.w3.org/2000/svg"><g><path d="m457 9c-26.845 0-49.245 19.337-54.039 44.811-100.316 42.634-257.347 43.189-258.961 43.189h-69c-41.355 0-75 33.645-75 75v72c0 41.355 33.645 75 75 75h56.861l26.505 124.302c7.212 34.591 38.091 59.698 73.424 59.698 25.684 0 44.744-23.618 39.524-48.619l-10.845-52.057c29.485-9.635 52.622-33.328 61.543-63.044 28.13 5.146 55.524 12.169 80.953 22.929 4.801 25.463 27.197 44.791 54.035 44.791 30.327 0 55-24.673 55-55v-288c0-30.327-24.673-55-55-55zm-143.863 298.356c-16.572-3.103-101.538-13.912-154.137-17.476v-163.126c40.875-1.105 155.821-7.164 243-40.232v243.037c-28.47-10.57-58.778-17.295-88.863-22.203zm-283.137-63.356v-72c0-24.813 20.187-45 45-45h54v162h-54c-24.813 0-45-20.187-45-45zm201.79 229c-21.2 0-39.729-15.065-44.069-35.888l-24.925-116.892c16.542 1.203 33.864 2.796 50.9 4.68l28.251 135.606c1.346 6.45-3.566 12.494-10.157 12.494zm22.505-100.314-9.197-44.146c15.586 1.813 31.289 3.681 46.904 5.908-6.459 17.516-20.268 31.532-37.707 38.238zm227.705-20.686c0 13.785-11.215 25-25 25s-25-11.215-25-25v-288c0-13.785 11.215-25 25-25s25 11.215 25 25z"/></g></svg>